<svg width="80" height="80" viewBox="0 0 80 80" fill="none" xmlns="http://www.w3.org/2000/svg">
<path d="M46.4497 79.4795C46.1165 79.5338 45.782 79.5839 45.4463 79.6296C45.782 79.5839 46.1165 79.5338 46.4497 79.4795Z" fill="#3E5A62"/>
<path d="M47.2494 79.3428C47.0901 79.3721 46.9308 79.3989 46.7715 79.4264C46.9308 79.3989 47.0901 79.3721 47.2494 79.3428Z" fill="#3E5A62"/>
<path d="M44.5531 79.7407C44.1631 79.7847 43.7706 79.8237 43.377 79.8567C43.7706 79.8237 44.1631 79.7847 44.5531 79.7407Z" fill="#3E5A62"/>
<path d="M45.3208 79.6465C45.1334 79.6715 44.9448 79.6947 44.7568 79.7167C44.9448 79.6947 45.1334 79.6715 45.3208 79.6465Z" fill="#3E5A62"/>
<path d="M48.3384 79.1265C48.198 79.1564 48.057 79.1863 47.916 79.215C48.057 79.1863 48.198 79.1564 48.3384 79.1265Z" fill="#3E5A62"/>
<path d="M51.0417 78.4551C50.9282 78.4874 50.8147 78.5179 50.7012 78.5497C50.8147 78.5179 50.9282 78.4874 51.0417 78.4551Z" fill="#3E5A62"/>
<path d="M50.2236 78.6787C50.1003 78.7111 49.9764 78.744 49.8525 78.7751C49.9764 78.744 50.1003 78.7117 50.2236 78.6787Z" fill="#3E5A62"/>
<path d="M49.155 78.9458C49.0244 78.9763 48.8926 79.005 48.7607 79.0343C48.8926 79.005 49.0244 78.9763 49.155 78.9458Z" fill="#3E5A62"/>
<path d="M43.3638 79.8579C43.1532 79.8756 42.9426 79.8915 42.7314 79.9055C42.9426 79.8915 43.1532 79.8756 43.3638 79.8579Z" fill="#3E5A62"/>
<path d="M80 40C80 17.912 62.088 0 40 0C17.912 0 0 17.912 0 40C0 62.088 17.912 80 40 80C40.235 80 40.4688 79.9951 40.7031 79.9908V48.8525H32.1094V38.8373H40.7031V31.4673C40.7031 22.9199 45.921 18.2678 53.5455 18.2678C57.1967 18.2678 60.3351 18.54 61.25 18.6615V27.5946H55.9924C51.8445 27.5946 51.0413 29.566 51.0413 32.4585V38.8373H60.9595L59.6667 48.8525H51.0413V78.4546C67.7606 73.6615 80 58.2581 80 40Z" fill="#3E5A62"/>
<path d="M42.6423 79.9109C42.2261 79.9377 41.808 79.9591 41.3887 79.9731C41.808 79.9591 42.2261 79.9377 42.6423 79.9109Z" fill="#3E5A62"/>
<path d="M41.3682 79.9744C41.1472 79.9817 40.9257 79.9872 40.7041 79.9908C40.9257 79.9872 41.1472 79.9817 41.3682 79.9744Z" fill="#3E5A62"/>
</svg>
