<svg width="80" height="80" viewBox="0 0 80 80" fill="none" xmlns="http://www.w3.org/2000/svg">
<path d="M40 0C17.912 0 0 17.912 0 40C0 62.088 17.912 80 40 80C62.088 80 80 62.088 80 40C80 17.912 62.088 0 40 0Z" fill="#3E5A62"/>
<path d="M33.1303 41.4177C30.1034 41.4177 27.6484 43.8727 27.6484 46.8996V60.6119C27.6484 63.6387 30.1034 66.0937 33.1303 66.0937C36.1572 66.0937 38.6122 63.6387 38.6122 60.6119V46.8996C38.61 43.8727 36.155 41.4177 33.1303 41.4177Z" fill="white"/>
<path d="M13.9434 46.8995C13.9434 49.9286 16.4005 52.3858 19.4296 52.3858C22.4586 52.3858 24.9158 49.9286 24.9158 46.8995V41.4133H19.4339C19.4317 41.4133 19.4317 41.4133 19.4296 41.4133C16.4005 41.4133 13.9434 43.8705 13.9434 46.8995Z" fill="white"/>
<path d="M33.1373 13.9062C33.1351 13.9062 33.1329 13.9062 33.1307 13.9062C30.1017 13.9062 27.6445 16.3634 27.6445 19.3925C27.6445 22.4215 30.1017 24.8787 33.1307 24.8787H38.6126C38.6126 21.767 38.6126 22.5237 38.6126 19.3816C38.6104 16.3569 36.1598 13.9062 33.1373 13.9062Z" fill="white"/>
<path d="M19.3925 38.6323H33.1308C36.1599 38.6323 38.617 36.1752 38.617 33.1461C38.617 30.1171 36.1599 27.6599 33.1308 27.6599H19.3925C16.3634 27.6599 13.9062 30.1171 13.9062 33.1461C13.9062 36.1752 16.3634 38.6323 19.3925 38.6323Z" fill="white"/>
<path d="M60.5593 27.6577C57.5346 27.6577 55.084 30.1084 55.084 33.1331V33.1439V38.6301H60.5659C63.5949 38.6301 66.0521 36.173 66.0521 33.1439C66.0521 30.1149 63.5949 27.6577 60.5659 27.6577C60.5637 27.6577 60.5615 27.6577 60.5593 27.6577Z" fill="white"/>
<path d="M41.3896 19.3925V33.1461C41.3896 36.173 43.8446 38.628 46.8715 38.628C49.8984 38.628 52.3534 36.173 52.3534 33.1461V19.3925C52.3534 16.3656 49.8984 13.9106 46.8715 13.9106C43.8446 13.9106 41.3896 16.3656 41.3896 19.3925Z" fill="white"/>
<path d="M52.3514 60.6076C52.3514 57.5807 49.8964 55.1257 46.8696 55.1257H41.3877V60.6119C41.3899 63.6367 43.8427 66.0895 46.8696 66.0895C49.8964 66.0895 52.3514 63.6345 52.3514 60.6076Z" fill="white"/>
<path d="M60.6074 41.4133H46.869C43.84 41.4133 41.3828 43.8705 41.3828 46.8995C41.3828 49.9286 43.84 52.3858 46.869 52.3858H60.6074C63.6365 52.3858 66.0936 49.9286 66.0936 46.8995C66.0936 43.8705 63.6365 41.4133 60.6074 41.4133Z" fill="white"/>
</svg>
