<svg width="80" height="80" viewBox="0 0 80 80" fill="none" xmlns="http://www.w3.org/2000/svg">
<path d="M40.01 0H39.99C17.935 0 0 17.94 0 40C0 48.75 2.82 56.86 7.615 63.445L2.63 78.305L18.005 73.39C24.33 77.58 31.875 80 40.01 80C62.065 80 80 62.055 80 40C80 17.945 62.065 0 40.01 0ZM63.285 56.485C62.32 59.21 58.49 61.47 55.435 62.13C53.345 62.575 50.615 62.93 41.425 59.12C29.67 54.25 22.1 42.305 21.51 41.53C20.945 40.755 16.76 35.205 16.76 29.465C16.76 23.725 19.675 20.93 20.85 19.73C21.815 18.745 23.41 18.295 24.94 18.295C25.435 18.295 25.88 18.32 26.28 18.34C27.455 18.39 28.045 18.46 28.82 20.315C29.785 22.64 32.135 28.38 32.415 28.97C32.7 29.56 32.985 30.36 32.585 31.135C32.21 31.935 31.88 32.29 31.29 32.97C30.7 33.65 30.14 34.17 29.55 34.9C29.01 35.535 28.4 36.215 29.08 37.39C29.76 38.54 32.11 42.375 35.57 45.455C40.035 49.43 43.655 50.7 44.95 51.24C45.915 51.64 47.065 51.545 47.77 50.795C48.665 49.83 49.77 48.23 50.895 46.655C51.695 45.525 52.705 45.385 53.765 45.785C54.845 46.16 60.56 48.985 61.735 49.57C62.91 50.16 63.685 50.44 63.97 50.935C64.25 51.43 64.25 53.755 63.285 56.485Z" fill="#3E5A62"/>
</svg>
